<svg xmlns="http://www.w3.org/2000/svg" viewBox="0 0 800 600" font-family="system-ui, sans-serif">
  <defs>
    <linearGradient id="bg" x1="0" y1="0" x2="1" y2="1">
      <stop offset="0" stop-color="#dfe9f2"/><stop offset="1" stop-color="#f4f8fb"/>
    </linearGradient>
    <linearGradient id="vid" x1="0" y1="0" x2="1" y2="1">
      <stop offset="0" stop-color="#103b63"/><stop offset="1" stop-color="#0d2c4a"/>
    </linearGradient>
    <filter id="sh" x="-20%" y="-20%" width="140%" height="140%">
      <feDropShadow dx="0" dy="10" stdDeviation="18" flood-color="#103b63" flood-opacity="0.18"/>
    </filter>
  </defs>
  <rect width="800" height="600" fill="url(#bg)"/>
  <circle cx="710" cy="120" r="130" fill="#4fb88b" opacity="0.08"/>
  <circle cx="80" cy="520" r="140" fill="#103b63" opacity="0.06"/>

  <g filter="url(#sh)">
    <rect x="90" y="70" width="620" height="460" rx="14" fill="#ffffff"/>
    <rect x="90" y="70" width="620" height="38" rx="14" fill="#103b63"/>
    <rect x="90" y="94" width="620" height="14" fill="#103b63"/>
    <circle cx="114" cy="89" r="5" fill="#ef6a5a"/><circle cx="132" cy="89" r="5" fill="#f5bd4f"/><circle cx="150" cy="89" r="5" fill="#4fb88b"/>

    <rect x="114" y="130" width="380" height="240" rx="12" fill="url(#vid)"/>
    <circle cx="304" cy="250" r="40" fill="#4fb88b"/>
    <polygon points="292,230 292,270 328,250" fill="#ffffff"/>
    <rect x="132" y="336" width="344" height="6" rx="3" fill="#3d5a78"/>
    <rect x="132" y="336" width="210" height="6" rx="3" fill="#4fb88b"/>
    <circle cx="342" cy="339" r="8" fill="#ffffff"/>

    <rect x="114" y="390" width="240" height="14" rx="7" fill="#103b63"/>
    <rect x="114" y="418" width="380" height="9" rx="4" fill="#9fb3c4"/>
    <rect x="114" y="438" width="330" height="9" rx="4" fill="#c9d8e4"/>

    <circle cx="132" cy="486" r="16" fill="#103b63"/>
    <circle cx="156" cy="486" r="16" fill="#4fb88b"/>
    <circle cx="180" cy="486" r="16" fill="#6d8aa5"/>
    <rect x="210" y="478" width="120" height="9" rx="4" fill="#9fb3c4"/>

    <rect x="518" y="130" width="176" height="58" rx="10" fill="#f0f6f3"/>
    <rect x="534" y="146" width="90" height="9" rx="4" fill="#103b63"/>
    <rect x="534" y="164" width="120" height="7" rx="3" fill="#4fb88b"/>

    <rect x="518" y="200" width="176" height="58" rx="10" fill="#ffffff" stroke="#e2ebf2"/>
    <rect x="534" y="216" width="100" height="9" rx="4" fill="#103b63"/>
    <rect x="534" y="234" width="80" height="7" rx="3" fill="#c9d8e4"/>

    <rect x="518" y="270" width="176" height="58" rx="10" fill="#ffffff" stroke="#e2ebf2"/>
    <rect x="534" y="286" width="84" height="9" rx="4" fill="#103b63"/>
    <rect x="534" y="304" width="104" height="7" rx="3" fill="#c9d8e4"/>

    <rect x="518" y="340" width="176" height="58" rx="10" fill="#ffffff" stroke="#e2ebf2"/>
    <rect x="534" y="356" width="96" height="9" rx="4" fill="#103b63"/>
    <rect x="534" y="374" width="70" height="7" rx="3" fill="#c9d8e4"/>

    <rect x="518" y="452" width="176" height="46" rx="23" fill="#4fb88b"/>
    <rect x="556" y="470" width="100" height="10" rx="5" fill="#ffffff"/>
  </g>
</svg>
