<svg xmlns="http://www.w3.org/2000/svg" viewBox="0 0 800 600" font-family="system-ui, sans-serif">
  <defs>
    <linearGradient id="bg" x1="0" y1="0" x2="1" y2="1">
      <stop offset="0" stop-color="#dfe9f2"/><stop offset="1" stop-color="#f4f8fb"/>
    </linearGradient>
    <linearGradient id="chart" x1="0" y1="0" x2="0" y2="1">
      <stop offset="0" stop-color="#4fb88b" stop-opacity="0.35"/><stop offset="1" stop-color="#4fb88b" stop-opacity="0"/>
    </linearGradient>
    <filter id="sh" x="-20%" y="-20%" width="140%" height="140%">
      <feDropShadow dx="0" dy="10" stdDeviation="18" flood-color="#103b63" flood-opacity="0.18"/>
    </filter>
  </defs>
  <rect width="800" height="600" fill="url(#bg)"/>
  <circle cx="90" cy="80" r="120" fill="#4fb88b" opacity="0.08"/>
  <circle cx="740" cy="540" r="150" fill="#103b63" opacity="0.06"/>

  <g filter="url(#sh)">
    <rect x="90" y="70" width="620" height="460" rx="14" fill="#ffffff"/>
    <rect x="90" y="70" width="620" height="38" rx="14" fill="#103b63"/>
    <rect x="90" y="94" width="620" height="14" fill="#103b63"/>
    <circle cx="114" cy="89" r="5" fill="#ef6a5a"/><circle cx="132" cy="89" r="5" fill="#f5bd4f"/><circle cx="150" cy="89" r="5" fill="#4fb88b"/>

    <rect x="90" y="108" width="132" height="422" fill="#0d2c4a"/>
    <rect x="106" y="132" width="100" height="10" rx="5" fill="#4fb88b"/>
    <rect x="106" y="164" width="84" height="8" rx="4" fill="#3d5a78"/>
    <rect x="106" y="188" width="92" height="8" rx="4" fill="#3d5a78"/>
    <rect x="106" y="212" width="70" height="8" rx="4" fill="#3d5a78"/>
    <rect x="106" y="236" width="88" height="8" rx="4" fill="#3d5a78"/>

    <rect x="242" y="128" width="140" height="76" rx="10" fill="#f0f6f3"/>
    <rect x="256" y="142" width="60" height="8" rx="4" fill="#9fb3c4"/>
    <rect x="256" y="160" width="86" height="14" rx="7" fill="#103b63"/>
    <rect x="256" y="184" width="40" height="8" rx="4" fill="#4fb88b"/>

    <rect x="398" y="128" width="140" height="76" rx="10" fill="#f0f6f3"/>
    <rect x="412" y="142" width="60" height="8" rx="4" fill="#9fb3c4"/>
    <rect x="412" y="160" width="74" height="14" rx="7" fill="#103b63"/>
    <rect x="412" y="184" width="40" height="8" rx="4" fill="#4fb88b"/>

    <rect x="554" y="128" width="140" height="76" rx="10" fill="#f0f6f3"/>
    <rect x="568" y="142" width="60" height="8" rx="4" fill="#9fb3c4"/>
    <rect x="568" y="160" width="92" height="14" rx="7" fill="#103b63"/>
    <rect x="568" y="184" width="40" height="8" rx="4" fill="#103b63"/>

    <rect x="242" y="224" width="296" height="188" rx="10" fill="#f7fafc" stroke="#e2ebf2"/>
    <polyline points="262,368 306,330 350,346 394,296 438,312 482,262 516,276" fill="none" stroke="#4fb88b" stroke-width="4" stroke-linecap="round" stroke-linejoin="round"/>
    <polygon points="262,368 306,330 350,346 394,296 438,312 482,262 516,276 516,392 262,392" fill="url(#chart)"/>
    <rect x="262" y="242" width="96" height="10" rx="5" fill="#103b63"/>

    <rect x="554" y="224" width="140" height="188" rx="10" fill="#f7fafc" stroke="#e2ebf2"/>
    <rect x="572" y="330" width="18" height="62" rx="4" fill="#4fb88b"/>
    <rect x="600" y="298" width="18" height="94" rx="4" fill="#103b63"/>
    <rect x="628" y="316" width="18" height="76" rx="4" fill="#4fb88b"/>
    <rect x="656" y="272" width="18" height="120" rx="4" fill="#103b63"/>
    <rect x="572" y="242" width="80" height="10" rx="5" fill="#103b63"/>

    <rect x="242" y="432" width="452" height="72" rx="10" fill="#f7fafc" stroke="#e2ebf2"/>
    <rect x="260" y="450" width="180" height="9" rx="4" fill="#9fb3c4"/>
    <rect x="260" y="472" width="130" height="9" rx="4" fill="#c9d8e4"/>
    <rect x="586" y="452" width="90" height="30" rx="15" fill="#4fb88b"/>
  </g>
</svg>
