<svg xmlns="http://www.w3.org/2000/svg" viewBox="0 0 800 600" font-family="system-ui, sans-serif">
  <defs>
    <linearGradient id="bg" x1="0" y1="0" x2="1" y2="1">
      <stop offset="0" stop-color="#dfe9f2"/><stop offset="1" stop-color="#f4f8fb"/>
    </linearGradient>
    <filter id="sh" x="-20%" y="-20%" width="140%" height="140%">
      <feDropShadow dx="0" dy="10" stdDeviation="18" flood-color="#103b63" flood-opacity="0.18"/>
    </filter>
  </defs>
  <rect width="800" height="600" fill="url(#bg)"/>
  <circle cx="120" cy="500" r="140" fill="#4fb88b" opacity="0.08"/>
  <circle cx="700" cy="90" r="130" fill="#103b63" opacity="0.06"/>
  <path d="M 560 430 h 46 m -23 -23 v 46" stroke="#4fb88b" stroke-width="10" stroke-linecap="round" opacity="0.35"/>
  <path d="M 190 140 h 34 m -17 -17 v 34" stroke="#103b63" stroke-width="8" stroke-linecap="round" opacity="0.2"/>

  <g filter="url(#sh)">
    <rect x="300" y="48" width="230" height="504" rx="34" fill="#0d2c4a"/>
    <rect x="310" y="58" width="210" height="484" rx="26" fill="#ffffff"/>
    <rect x="380" y="66" width="70" height="12" rx="6" fill="#0d2c4a"/>

    <rect x="326" y="96" width="120" height="12" rx="6" fill="#103b63"/>
    <rect x="326" y="118" width="80" height="8" rx="4" fill="#9fb3c4"/>

    <rect x="326" y="146" width="178" height="44" rx="10" fill="#f0f6f3"/>
    <circle cx="348" cy="168" r="10" fill="#4fb88b"/>
    <rect x="368" y="162" width="90" height="10" rx="5" fill="#9fb3c4"/>

    <rect x="326" y="206" width="178" height="64" rx="10" fill="#ffffff" stroke="#e2ebf2"/>
    <circle cx="352" cy="238" r="16" fill="#103b63"/>
    <rect x="378" y="222" width="86" height="10" rx="5" fill="#103b63"/>
    <rect x="378" y="240" width="60" height="8" rx="4" fill="#9fb3c4"/>
    <rect x="440" y="252" width="52" height="8" rx="4" fill="#4fb88b"/>

    <rect x="326" y="282" width="178" height="64" rx="10" fill="#ffffff" stroke="#e2ebf2"/>
    <circle cx="352" cy="314" r="16" fill="#4fb88b"/>
    <rect x="378" y="298" width="78" height="10" rx="5" fill="#103b63"/>
    <rect x="378" y="316" width="66" height="8" rx="4" fill="#9fb3c4"/>
    <rect x="440" y="328" width="52" height="8" rx="4" fill="#4fb88b"/>

    <rect x="326" y="360" width="178" height="70" rx="10" fill="#f7fafc" stroke="#e2ebf2"/>
    <rect x="340" y="372" width="70" height="9" rx="4" fill="#103b63"/>
    <g fill="#c9d8e4">
      <rect x="340" y="392" width="22" height="22" rx="6"/><rect x="370" y="392" width="22" height="22" rx="6"/>
      <rect x="430" y="392" width="22" height="22" rx="6"/><rect x="460" y="392" width="22" height="22" rx="6"/>
    </g>
    <rect x="400" y="392" width="22" height="22" rx="6" fill="#4fb88b"/>

    <rect x="326" y="448" width="178" height="42" rx="21" fill="#4fb88b"/>
    <rect x="376" y="464" width="78" height="10" rx="5" fill="#ffffff"/>

    <rect x="380" y="512" width="70" height="6" rx="3" fill="#c9d8e4"/>
  </g>
</svg>
