<svg xmlns="http://www.w3.org/2000/svg" viewBox="0 0 800 600" font-family="system-ui, sans-serif">
  <defs>
    <linearGradient id="bg" x1="0" y1="0" x2="1" y2="1">
      <stop offset="0" stop-color="#dfe9f2"/><stop offset="1" stop-color="#f4f8fb"/>
    </linearGradient>
    <filter id="sh" x="-20%" y="-20%" width="140%" height="140%">
      <feDropShadow dx="0" dy="10" stdDeviation="18" flood-color="#103b63" flood-opacity="0.18"/>
    </filter>
  </defs>
  <rect width="800" height="600" fill="url(#bg)"/>
  <circle cx="90" cy="110" r="130" fill="#103b63" opacity="0.06"/>
  <circle cx="720" cy="500" r="140" fill="#4fb88b" opacity="0.08"/>

  <g filter="url(#sh)">
    <rect x="90" y="70" width="620" height="460" rx="14" fill="#ffffff"/>
    <rect x="90" y="70" width="620" height="38" rx="14" fill="#103b63"/>
    <rect x="90" y="94" width="620" height="14" fill="#103b63"/>
    <rect x="110" y="80" width="110" height="16" rx="8" fill="#4fb88b"/>

    <g>
      <rect x="114" y="130" width="120" height="104" rx="10" fill="#f7fafc" stroke="#e2ebf2"/>
      <rect x="128" y="144" width="92" height="46" rx="8" fill="#c9d8e4"/>
      <rect x="128" y="200" width="66" height="9" rx="4" fill="#103b63"/>
      <rect x="128" y="216" width="40" height="8" rx="4" fill="#4fb88b"/>

      <rect x="248" y="130" width="120" height="104" rx="10" fill="#f7fafc" stroke="#e2ebf2"/>
      <rect x="262" y="144" width="92" height="46" rx="8" fill="#9fb3c4"/>
      <rect x="262" y="200" width="58" height="9" rx="4" fill="#103b63"/>
      <rect x="262" y="216" width="40" height="8" rx="4" fill="#4fb88b"/>

      <rect x="114" y="248" width="120" height="104" rx="10" fill="#f7fafc" stroke="#e2ebf2"/>
      <rect x="128" y="262" width="92" height="46" rx="8" fill="#6d8aa5"/>
      <rect x="128" y="318" width="70" height="9" rx="4" fill="#103b63"/>
      <rect x="128" y="334" width="40" height="8" rx="4" fill="#4fb88b"/>

      <rect x="248" y="248" width="120" height="104" rx="10" fill="#f7fafc" stroke="#e2ebf2"/>
      <rect x="262" y="262" width="92" height="46" rx="8" fill="#c9d8e4"/>
      <rect x="262" y="318" width="52" height="9" rx="4" fill="#103b63"/>
      <rect x="262" y="334" width="40" height="8" rx="4" fill="#4fb88b"/>

      <rect x="114" y="366" width="120" height="104" rx="10" fill="#f7fafc" stroke="#e2ebf2"/>
      <rect x="128" y="380" width="92" height="46" rx="8" fill="#9fb3c4"/>
      <rect x="128" y="436" width="62" height="9" rx="4" fill="#103b63"/>
      <rect x="128" y="452" width="40" height="8" rx="4" fill="#4fb88b"/>

      <rect x="248" y="366" width="120" height="104" rx="10" fill="#f7fafc" stroke="#e2ebf2"/>
      <rect x="262" y="380" width="92" height="46" rx="8" fill="#c9d8e4"/>
      <rect x="262" y="436" width="66" height="9" rx="4" fill="#103b63"/>
      <rect x="262" y="452" width="40" height="8" rx="4" fill="#4fb88b"/>
    </g>

    <rect x="392" y="130" width="302" height="340" rx="12" fill="#f7fafc" stroke="#e2ebf2"/>
    <rect x="412" y="150" width="120" height="12" rx="6" fill="#103b63"/>
    <g>
      <rect x="412" y="184" width="150" height="9" rx="4" fill="#9fb3c4"/><rect x="614" y="184" width="60" height="9" rx="4" fill="#103b63"/>
      <rect x="412" y="212" width="130" height="9" rx="4" fill="#9fb3c4"/><rect x="614" y="212" width="60" height="9" rx="4" fill="#103b63"/>
      <rect x="412" y="240" width="160" height="9" rx="4" fill="#9fb3c4"/><rect x="614" y="240" width="60" height="9" rx="4" fill="#103b63"/>
      <rect x="412" y="268" width="120" height="9" rx="4" fill="#9fb3c4"/><rect x="614" y="268" width="60" height="9" rx="4" fill="#103b63"/>
    </g>
    <line x1="412" y1="300" x2="674" y2="300" stroke="#e2ebf2" stroke-width="2" stroke-dasharray="6 6"/>
    <rect x="412" y="320" width="80" height="12" rx="6" fill="#103b63"/>
    <rect x="594" y="316" width="80" height="18" rx="9" fill="#0d2c4a"/>
    <rect x="412" y="366" width="262" height="30" rx="8" fill="#eef5f1"/>
    <rect x="428" y="376" width="120" height="10" rx="5" fill="#4fb88b"/>
    <rect x="412" y="414" width="262" height="42" rx="21" fill="#4fb88b"/>
    <rect x="496" y="430" width="94" height="10" rx="5" fill="#ffffff"/>
  </g>
</svg>
