<svg xmlns="http://www.w3.org/2000/svg" viewBox="0 0 800 600" font-family="system-ui, sans-serif">
  <defs>
    <linearGradient id="bg" x1="0" y1="0" x2="1" y2="1">
      <stop offset="0" stop-color="#dfe9f2"/><stop offset="1" stop-color="#f4f8fb"/>
    </linearGradient>
    <filter id="sh" x="-20%" y="-20%" width="140%" height="140%">
      <feDropShadow dx="0" dy="10" stdDeviation="18" flood-color="#103b63" flood-opacity="0.18"/>
    </filter>
  </defs>
  <rect width="800" height="600" fill="url(#bg)"/>
  <circle cx="110" cy="100" r="130" fill="#4fb88b" opacity="0.08"/>
  <circle cx="710" cy="520" r="140" fill="#103b63" opacity="0.06"/>

  <g filter="url(#sh)">
    <rect x="90" y="70" width="620" height="460" rx="14" fill="#ffffff"/>
    <rect x="90" y="70" width="620" height="38" rx="14" fill="#103b63"/>
    <rect x="90" y="94" width="620" height="14" fill="#103b63"/>
    <circle cx="114" cy="89" r="5" fill="#ef6a5a"/><circle cx="132" cy="89" r="5" fill="#f5bd4f"/><circle cx="150" cy="89" r="5" fill="#4fb88b"/>
    <circle cx="656" cy="89" r="7" fill="#4fb88b"/><circle cx="674" cy="89" r="7" fill="#6d8aa5"/><circle cx="692" cy="89" r="7" fill="#9fb3c4"/>

    <rect x="114" y="126" width="200" height="14" rx="7" fill="#103b63"/>
    <rect x="114" y="150" width="120" height="9" rx="4" fill="#9fb3c4"/>

    <g>
      <rect x="114" y="182" width="180" height="326" rx="12" fill="#f7fafc" stroke="#e2ebf2"/>
      <rect x="130" y="198" width="70" height="10" rx="5" fill="#103b63"/>
      <circle cx="276" cy="203" r="9" fill="#e2ebf2"/>

      <rect x="130" y="222" width="148" height="76" rx="8" fill="#ffffff" stroke="#e2ebf2"/>
      <rect x="142" y="234" width="44" height="8" rx="4" fill="#4fb88b"/>
      <rect x="142" y="252" width="110" height="8" rx="4" fill="#103b63"/>
      <rect x="142" y="268" width="80" height="7" rx="3" fill="#c9d8e4"/>
      <circle cx="258" cy="280" r="8" fill="#6d8aa5"/>

      <rect x="130" y="310" width="148" height="76" rx="8" fill="#ffffff" stroke="#e2ebf2"/>
      <rect x="142" y="322" width="52" height="8" rx="4" fill="#6d8aa5"/>
      <rect x="142" y="340" width="100" height="8" rx="4" fill="#103b63"/>
      <rect x="142" y="356" width="90" height="7" rx="3" fill="#c9d8e4"/>
      <circle cx="258" cy="368" r="8" fill="#103b63"/>

      <rect x="130" y="398" width="148" height="60" rx="8" fill="#ffffff" stroke="#e2ebf2"/>
      <rect x="142" y="410" width="40" height="8" rx="4" fill="#4fb88b"/>
      <rect x="142" y="428" width="104" height="8" rx="4" fill="#103b63"/>
    </g>

    <g>
      <rect x="310" y="182" width="180" height="326" rx="12" fill="#f7fafc" stroke="#e2ebf2"/>
      <rect x="326" y="198" width="90" height="10" rx="5" fill="#103b63"/>
      <circle cx="472" cy="203" r="9" fill="#4fb88b"/>

      <rect x="326" y="222" width="148" height="76" rx="8" fill="#ffffff" stroke="#4fb88b" stroke-width="2"/>
      <rect x="338" y="234" width="48" height="8" rx="4" fill="#4fb88b"/>
      <rect x="338" y="252" width="112" height="8" rx="4" fill="#103b63"/>
      <rect x="338" y="268" width="76" height="7" rx="3" fill="#c9d8e4"/>
      <circle cx="454" cy="280" r="8" fill="#4fb88b"/>

      <rect x="326" y="310" width="148" height="76" rx="8" fill="#ffffff" stroke="#e2ebf2"/>
      <rect x="338" y="322" width="56" height="8" rx="4" fill="#6d8aa5"/>
      <rect x="338" y="340" width="96" height="8" rx="4" fill="#103b63"/>
      <rect x="338" y="356" width="84" height="7" rx="3" fill="#c9d8e4"/>
      <circle cx="454" cy="368" r="8" fill="#6d8aa5"/>
    </g>

    <g>
      <rect x="506" y="182" width="180" height="326" rx="12" fill="#f7fafc" stroke="#e2ebf2"/>
      <rect x="522" y="198" width="64" height="10" rx="5" fill="#103b63"/>
      <circle cx="668" cy="203" r="9" fill="#e2ebf2"/>

      <rect x="522" y="222" width="148" height="76" rx="8" fill="#ffffff" stroke="#e2ebf2"/>
      <rect x="534" y="234" width="44" height="8" rx="4" fill="#4fb88b"/>
      <rect x="534" y="252" width="108" height="8" rx="4" fill="#103b63"/>
      <rect x="534" y="268" width="70" height="7" rx="3" fill="#c9d8e4"/>
      <path d="M 640 276 l 6 6 l 12 -13" stroke="#4fb88b" stroke-width="3" fill="none" stroke-linecap="round" stroke-linejoin="round"/>

      <rect x="522" y="310" width="148" height="76" rx="8" fill="#ffffff" stroke="#e2ebf2"/>
      <rect x="534" y="322" width="52" height="8" rx="4" fill="#6d8aa5"/>
      <rect x="534" y="340" width="100" height="8" rx="4" fill="#103b63"/>
      <rect x="534" y="356" width="88" height="7" rx="3" fill="#c9d8e4"/>
      <path d="M 640 364 l 6 6 l 12 -13" stroke="#4fb88b" stroke-width="3" fill="none" stroke-linecap="round" stroke-linejoin="round"/>

      <rect x="522" y="398" width="148" height="60" rx="8" fill="#ffffff" stroke="#e2ebf2"/>
      <rect x="534" y="410" width="46" height="8" rx="4" fill="#4fb88b"/>
      <rect x="534" y="428" width="94" height="8" rx="4" fill="#103b63"/>
    </g>
  </g>
</svg>
