<svg xmlns="http://www.w3.org/2000/svg" viewBox="0 0 400 300">
  <defs>
    <linearGradient id="bg" x1="0" y1="0" x2="1" y2="1">
      <stop offset="0" stop-color="#0d2c4a"/><stop offset="1" stop-color="#103b63"/>
    </linearGradient>
  </defs>
  <rect width="400" height="300" fill="url(#bg)"/>
  <circle cx="340" cy="40" r="90" fill="#4fb88b" opacity="0.12"/>
  <circle cx="30" cy="270" r="70" fill="#4fb88b" opacity="0.1"/>

  <rect x="60" y="56" width="280" height="176" rx="10" fill="#132845"/>
  <rect x="60" y="56" width="280" height="24" rx="10" fill="#0a2038"/>
  <circle cx="76" cy="68" r="4" fill="#ef6a5a"/><circle cx="90" cy="68" r="4" fill="#f5bd4f"/><circle cx="104" cy="68" r="4" fill="#4fb88b"/>

  <rect x="72" y="92" width="70" height="128" fill="#0a2038"/>
  <rect x="82" y="104" width="46" height="6" rx="3" fill="#4fb88b"/>
  <rect x="82" y="118" width="34" height="5" rx="2.5" fill="#3d5a78"/>
  <rect x="82" y="132" width="42" height="5" rx="2.5" fill="#3d5a78"/>
  <rect x="82" y="146" width="28" height="5" rx="2.5" fill="#3d5a78"/>
  <rect x="82" y="164" width="40" height="5" rx="2.5" fill="#4fb88b"/>
  <rect x="82" y="178" width="30" height="5" rx="2.5" fill="#3d5a78"/>

  <rect x="150" y="98" width="176" height="60" rx="6" fill="#0a2038"/>
  <rect x="164" y="112" width="60" height="8" rx="4" fill="#4fb88b"/>
  <rect x="164" y="128" width="100" height="6" rx="3" fill="#5b7791"/>
  <rect x="164" y="140" width="80" height="6" rx="3" fill="#5b7791"/>

  <rect x="150" y="166" width="84" height="46" rx="6" fill="#0a2038"/>
  <polyline points="160,200 176,184 190,192 210,172" fill="none" stroke="#4fb88b" stroke-width="3" stroke-linecap="round" stroke-linejoin="round"/>

  <rect x="242" y="166" width="84" height="46" rx="6" fill="#0a2038"/>
  <rect x="252" y="176" width="14" height="26" rx="2" fill="#3d5a78"/>
  <rect x="270" y="184" width="14" height="18" rx="2" fill="#4fb88b"/>
  <rect x="288" y="170" width="14" height="32" rx="2" fill="#3d5a78"/>
  <rect x="306" y="188" width="14" height="14" rx="2" fill="#4fb88b"/>

  <rect x="150" y="242" width="100" height="10" rx="5" fill="#4fb88b" opacity="0.6"/>
</svg>
